<svg xmlns="http://www.w3.org/2000/svg" viewBox="0 0 32 32" width="32" height="32">
  <rect width="32" height="32" rx="7" fill="#fbbf24" />
  <g transform="translate(5.5 6)" fill="#0f172a">
    <path d="M1 5.5A1.5 1.5 0 0 1 2.5 4h8A1.5 1.5 0 0 1 12 5.5V12h1.2a2.4 2.4 0 0 1 4.53 0H18a1 1 0 0 0 1-1V9.6a1 1 0 0 0-.3-.7l-2.6-2.6a1 1 0 0 0-.7-.3H13V5.5c0-.28.22-.5.5-.5H15c.66 0 1.3.26 1.77.73l2.5 2.5c.47.47.73 1.1.73 1.77V11a2.5 2.5 0 0 1-2.5 2.5h-.55a2.4 2.4 0 0 1-4.7 0H7.75a2.4 2.4 0 0 1-4.7 0H2.5A1.5 1.5 0 0 1 1 12V5.5Zm4.4 8.6a.9.9 0 1 0 0-1.8.9.9 0 0 0 0 1.8Zm10 0a.9.9 0 1 0 0-1.8.9.9 0 0 0 0 1.8Z" />
  </g>
</svg>
